<mxfile host="app.diagrams.net" modified="2021-04-18T23:17:02.695Z" agent="5.0 (Windows NT 10.0; Win64; x64) AppleWebKit/537.36 (KHTML, like Gecko) Chrome/89.0.4389.128 Safari/537.36" etag="fsulNtA0F5dcZW4-HDQF" version="14.6.1" type="github">
  <diagram name="Page-1" id="e7e014a7-5840-1c2e-5031-d8a46d1fe8dd">
    <mxGraphModel dx="1422" dy="762" grid="1" gridSize="10" guides="1" tooltips="1" connect="1" arrows="1" fold="1" page="1" pageScale="1" pageWidth="1169" pageHeight="826" background="#ffffff" math="0" shadow="0">
      <root>
        <mxCell id="0" />
        <mxCell id="1" parent="0" />
        <mxCell id="2" value="story creator system over all" style="swimlane;whiteSpace=wrap;fontSize=16;" parent="1" vertex="1">
          <mxGeometry x="360" y="20" width="430" height="620" as="geometry" />
        </mxCell>
        <mxCell id="h0rfx8RPR8Y8oXuff6AA-4" value="&lt;font style=&quot;font-size: 16px;&quot;&gt;เข้าสู่ระบบ&lt;/font&gt;" style="ellipse;whiteSpace=wrap;html=1;fontSize=16;" vertex="1" parent="2">
          <mxGeometry x="160" y="150" width="90" height="20" as="geometry" />
        </mxCell>
        <mxCell id="h0rfx8RPR8Y8oXuff6AA-6" value="&lt;font style=&quot;font-size: 16px;&quot;&gt;สมัครสมาชิก&lt;/font&gt;" style="ellipse;whiteSpace=wrap;html=1;fontSize=16;" vertex="1" parent="2">
          <mxGeometry x="150" y="70" width="120" height="20" as="geometry" />
        </mxCell>
        <mxCell id="h0rfx8RPR8Y8oXuff6AA-9" value="&lt;font style=&quot;font-size: 10px&quot;&gt;ตรวจสอบสิทธิ์&lt;/font&gt;" style="ellipse;whiteSpace=wrap;html=1;" vertex="1" parent="2">
          <mxGeometry x="322.5" y="150" width="90" height="20" as="geometry" />
        </mxCell>
        <mxCell id="h0rfx8RPR8Y8oXuff6AA-10" value="&lt;font style=&quot;font-size: 10px&quot;&gt;เรียกข้อมูลผู้ใช้&lt;/font&gt;" style="ellipse;whiteSpace=wrap;html=1;" vertex="1" parent="2">
          <mxGeometry x="300" y="60" width="80" height="20" as="geometry" />
        </mxCell>
        <mxCell id="h0rfx8RPR8Y8oXuff6AA-11" value="&amp;lt;&amp;lt;include&amp;gt;&amp;gt;" style="endArrow=open;endSize=6;dashed=1;html=1;exitX=0;exitY=0.5;exitDx=0;exitDy=0;rounded=1;strokeWidth=1;fontSize=1;fontFamily=Georgia;fontColor=#CC0000;spacing=8;spacingTop=5;spacingLeft=3;spacingBottom=5;spacingRight=9;labelBorderColor=none;entryX=1;entryY=0.5;entryDx=0;entryDy=0;" edge="1" parent="2" source="h0rfx8RPR8Y8oXuff6AA-9" target="h0rfx8RPR8Y8oXuff6AA-4">
          <mxGeometry x="-0.0769" y="-10" width="160" relative="1" as="geometry">
            <mxPoint x="295.0588247656308" y="403.0321431573675" as="sourcePoint" />
            <mxPoint x="227.95000000000005" y="357.96000000000004" as="targetPoint" />
            <mxPoint as="offset" />
          </mxGeometry>
        </mxCell>
        <mxCell id="h0rfx8RPR8Y8oXuff6AA-13" value="&amp;lt;&amp;lt;include&amp;gt;&amp;gt;" style="endArrow=open;endSize=6;dashed=1;html=1;exitX=0.5;exitY=1;exitDx=0;exitDy=0;rounded=1;strokeWidth=1;fontSize=1;fontFamily=Georgia;fontColor=#CC0000;spacing=8;spacingTop=5;spacingLeft=3;spacingBottom=5;spacingRight=9;labelBorderColor=none;" edge="1" parent="2" source="h0rfx8RPR8Y8oXuff6AA-10">
          <mxGeometry x="-0.2" width="160" relative="1" as="geometry">
            <mxPoint x="320" y="170" as="sourcePoint" />
            <mxPoint x="205" y="150" as="targetPoint" />
            <mxPoint as="offset" />
          </mxGeometry>
        </mxCell>
        <mxCell id="h0rfx8RPR8Y8oXuff6AA-14" value="&lt;span style=&quot;font-size: 16px;&quot;&gt;ดูโพสต์&lt;/span&gt;" style="ellipse;whiteSpace=wrap;html=1;fontSize=16;" vertex="1" parent="2">
          <mxGeometry x="173.75" y="210" width="62.5" height="28.75" as="geometry" />
        </mxCell>
        <mxCell id="h0rfx8RPR8Y8oXuff6AA-18" value="&lt;font style=&quot;font-size: 9px&quot;&gt;ดูโพสต์ตามประเภท&lt;/font&gt;" style="ellipse;whiteSpace=wrap;html=1;" vertex="1" parent="2">
          <mxGeometry x="160" y="297.19" width="90" height="25.62" as="geometry" />
        </mxCell>
        <mxCell id="h0rfx8RPR8Y8oXuff6AA-19" value="&amp;lt;&amp;lt;extend&amp;gt;&amp;gt;" style="endArrow=open;endSize=6;dashed=1;html=1;exitX=0.5;exitY=0;exitDx=0;exitDy=0;rounded=1;strokeWidth=1;fontSize=1;fontFamily=Georgia;fontColor=#CC0000;spacing=8;spacingTop=5;spacingLeft=3;spacingBottom=5;spacingRight=9;labelBorderColor=none;entryX=0.5;entryY=1;entryDx=0;entryDy=0;" edge="1" parent="2" source="h0rfx8RPR8Y8oXuff6AA-18" target="h0rfx8RPR8Y8oXuff6AA-14">
          <mxGeometry x="-0.0448" y="-6" width="160" relative="1" as="geometry">
            <mxPoint x="167.5" y="100" as="sourcePoint" />
            <mxPoint x="175" y="229" as="targetPoint" />
            <mxPoint as="offset" />
          </mxGeometry>
        </mxCell>
        <mxCell id="h0rfx8RPR8Y8oXuff6AA-20" value="&lt;span style=&quot;font-size: 9px&quot;&gt;ค้นหาโพสต์&lt;/span&gt;" style="ellipse;whiteSpace=wrap;html=1;" vertex="1" parent="2">
          <mxGeometry x="322.5" y="180" width="70" height="20" as="geometry" />
        </mxCell>
        <mxCell id="h0rfx8RPR8Y8oXuff6AA-22" value="&amp;lt;&amp;lt;extend&amp;gt;&amp;gt;" style="endArrow=open;endSize=6;dashed=1;html=1;exitX=0.02;exitY=0.669;exitDx=0;exitDy=0;rounded=1;strokeWidth=1;fontSize=1;fontFamily=Georgia;fontColor=#CC0000;spacing=8;spacingTop=5;spacingLeft=3;spacingBottom=5;spacingRight=9;labelBorderColor=none;entryX=0.91;entryY=0.188;entryDx=0;entryDy=0;exitPerimeter=0;entryPerimeter=0;" edge="1" parent="2" source="h0rfx8RPR8Y8oXuff6AA-20" target="h0rfx8RPR8Y8oXuff6AA-14">
          <mxGeometry x="0.0695" y="-12" width="160" relative="1" as="geometry">
            <mxPoint x="100" y="234.38" as="sourcePoint" />
            <mxPoint x="240" y="220" as="targetPoint" />
            <mxPoint as="offset" />
          </mxGeometry>
        </mxCell>
        <mxCell id="h0rfx8RPR8Y8oXuff6AA-23" value="&lt;span style=&quot;font-size: 9px&quot;&gt;แจ้งลบ&lt;/span&gt;" style="ellipse;whiteSpace=wrap;html=1;" vertex="1" parent="2">
          <mxGeometry x="322.5" y="214.37" width="50" height="20" as="geometry" />
        </mxCell>
        <mxCell id="h0rfx8RPR8Y8oXuff6AA-24" value="" style="endArrow=block;endSize=6;endFill=0;html=1;fontFamily=Georgia;fontSize=1;fontColor=#CC0000;strokeWidth=1;spacing=-6;entryX=0;entryY=0.5;entryDx=0;entryDy=0;startSize=1;jumpSize=1;exitX=1;exitY=0.5;exitDx=0;exitDy=0;" edge="1" parent="2" source="h0rfx8RPR8Y8oXuff6AA-14" target="h0rfx8RPR8Y8oXuff6AA-23">
          <mxGeometry width="160" relative="1" as="geometry">
            <mxPoint x="300" y="210" as="sourcePoint" />
            <mxPoint x="240" y="224" as="targetPoint" />
          </mxGeometry>
        </mxCell>
        <mxCell id="h0rfx8RPR8Y8oXuff6AA-31" value="&lt;span style=&quot;font-size: 16px;&quot;&gt;สร้างโพสต์&lt;/span&gt;" style="ellipse;whiteSpace=wrap;html=1;fontSize=16;" vertex="1" parent="2">
          <mxGeometry x="160" y="340" width="87.5" height="30" as="geometry" />
        </mxCell>
        <mxCell id="h0rfx8RPR8Y8oXuff6AA-34" value="&lt;span style=&quot;font-size: 9px&quot;&gt;เพิ่ม,ลบ,แก้ไข&lt;/span&gt;" style="ellipse;whiteSpace=wrap;html=1;" vertex="1" parent="2">
          <mxGeometry x="166.25" y="450" width="75" height="20" as="geometry" />
        </mxCell>
        <mxCell id="h0rfx8RPR8Y8oXuff6AA-35" value="&lt;span style=&quot;font-size: 9px&quot;&gt;เรียกรูปภาพ&lt;/span&gt;" style="ellipse;whiteSpace=wrap;html=1;" vertex="1" parent="2">
          <mxGeometry x="310" y="450" width="75" height="20" as="geometry" />
        </mxCell>
        <mxCell id="h0rfx8RPR8Y8oXuff6AA-37" value="" style="endArrow=block;endSize=9;endFill=0;html=1;fontFamily=Georgia;fontSize=1;fontColor=#CC0000;strokeWidth=1;spacing=-4;entryX=0;entryY=0.5;entryDx=0;entryDy=0;exitX=1;exitY=0.5;exitDx=0;exitDy=0;" edge="1" parent="2" source="h0rfx8RPR8Y8oXuff6AA-34" target="h0rfx8RPR8Y8oXuff6AA-35">
          <mxGeometry width="160" relative="1" as="geometry">
            <mxPoint x="240" y="490" as="sourcePoint" />
            <mxPoint x="330" y="490" as="targetPoint" />
          </mxGeometry>
        </mxCell>
        <mxCell id="h0rfx8RPR8Y8oXuff6AA-42" value="&amp;lt;&amp;lt;include&amp;gt;&amp;gt;" style="endArrow=open;endSize=6;dashed=1;html=1;rounded=1;strokeWidth=1;fontSize=1;fontFamily=Georgia;fontColor=#CC0000;spacing=8;spacingTop=5;spacingLeft=3;spacingBottom=5;spacingRight=9;labelBorderColor=none;entryX=0.5;entryY=0;entryDx=0;entryDy=0;startSize=4;exitX=0.5;exitY=1;exitDx=0;exitDy=0;" edge="1" parent="2" source="h0rfx8RPR8Y8oXuff6AA-31" target="h0rfx8RPR8Y8oXuff6AA-34">
          <mxGeometry x="0.0842" y="1" width="160" relative="1" as="geometry">
            <mxPoint x="205" y="240" as="sourcePoint" />
            <mxPoint x="205" y="300.0000000000001" as="targetPoint" />
            <mxPoint as="offset" />
          </mxGeometry>
        </mxCell>
        <mxCell id="h0rfx8RPR8Y8oXuff6AA-43" value="&lt;font style=&quot;font-size: 16px;&quot;&gt;บริหารจัดการ&lt;/font&gt;" style="ellipse;whiteSpace=wrap;html=1;fontSize=16;" vertex="1" parent="2">
          <mxGeometry x="148.75" y="550" width="110" height="30" as="geometry" />
        </mxCell>
        <mxCell id="h0rfx8RPR8Y8oXuff6AA-76" value="&lt;span style=&quot;font-size: 9px&quot;&gt;การอนุมัติเผยแพร่&lt;/span&gt;" style="ellipse;whiteSpace=wrap;html=1;" vertex="1" parent="2">
          <mxGeometry x="340" y="550" width="80" height="30" as="geometry" />
        </mxCell>
        <mxCell id="h0rfx8RPR8Y8oXuff6AA-77" value="&lt;font style=&quot;font-size: 9px&quot;&gt;&amp;lt;&amp;lt;extend&amp;gt;&amp;gt;&lt;/font&gt;" style="endArrow=open;endSize=6;dashed=1;html=1;exitX=1;exitY=0.5;exitDx=0;exitDy=0;rounded=1;strokeWidth=1;fontSize=1;fontFamily=Georgia;fontColor=#CC0000;spacing=8;spacingTop=5;spacingLeft=3;spacingBottom=5;spacingRight=9;labelBorderColor=none;entryX=0;entryY=0.5;entryDx=0;entryDy=0;startSize=4;" edge="1" parent="2" source="h0rfx8RPR8Y8oXuff6AA-43" target="h0rfx8RPR8Y8oXuff6AA-76">
          <mxGeometry x="0.2615" y="-15" width="160" relative="1" as="geometry">
            <mxPoint x="322.505" y="550" as="sourcePoint" />
            <mxPoint x="305.73000000000013" y="590.74" as="targetPoint" />
            <mxPoint as="offset" />
          </mxGeometry>
        </mxCell>
        <mxCell id="h0rfx8RPR8Y8oXuff6AA-79" value="&lt;span style=&quot;font-size: 9px&quot;&gt;การอนุมัติลบโพสต์&lt;/span&gt;" style="ellipse;whiteSpace=wrap;html=1;" vertex="1" parent="2">
          <mxGeometry x="10" y="550" width="80" height="30" as="geometry" />
        </mxCell>
        <mxCell id="h0rfx8RPR8Y8oXuff6AA-80" value="&lt;font style=&quot;font-size: 9px&quot;&gt;&amp;lt;&amp;lt;extend&amp;gt;&amp;gt;&lt;/font&gt;" style="endArrow=open;endSize=6;dashed=1;html=1;exitX=0;exitY=0.5;exitDx=0;exitDy=0;rounded=1;strokeWidth=1;fontSize=1;fontFamily=Georgia;fontColor=#CC0000;spacing=8;spacingTop=5;spacingLeft=3;spacingBottom=5;spacingRight=9;labelBorderColor=none;entryX=1;entryY=0.5;entryDx=0;entryDy=0;startSize=4;" edge="1" parent="2" source="h0rfx8RPR8Y8oXuff6AA-43" target="h0rfx8RPR8Y8oXuff6AA-79">
          <mxGeometry x="-0.3617" y="15" width="160" relative="1" as="geometry">
            <mxPoint x="237.95000000000005" y="588.3200000000002" as="sourcePoint" />
            <mxPoint x="280" y="650" as="targetPoint" />
            <mxPoint as="offset" />
          </mxGeometry>
        </mxCell>
        <mxCell id="Cz4GhBqtjuzWgZA0urQM-41" value="creator" style="shape=umlActor;verticalLabelPosition=bottom;verticalAlign=top;html=1;outlineConnect=0;fontSize=14;" parent="1" vertex="1">
          <mxGeometry x="835" y="360" width="20" height="40" as="geometry" />
        </mxCell>
        <mxCell id="Cz4GhBqtjuzWgZA0urQM-44" value="user" style="shape=umlActor;verticalLabelPosition=bottom;verticalAlign=top;html=1;outlineConnect=0;fontSize=14;" parent="1" vertex="1">
          <mxGeometry x="280" y="80" width="20" height="40" as="geometry" />
        </mxCell>
        <mxCell id="Cz4GhBqtjuzWgZA0urQM-47" value="editor" style="shape=umlActor;verticalLabelPosition=bottom;verticalAlign=top;html=1;outlineConnect=0;fontSize=14;" parent="1" vertex="1">
          <mxGeometry x="835" y="280" width="20" height="40" as="geometry" />
        </mxCell>
        <mxCell id="Cz4GhBqtjuzWgZA0urQM-50" value="super admin" style="shape=umlActor;verticalLabelPosition=bottom;verticalAlign=top;html=1;outlineConnect=0;fontSize=14;" parent="1" vertex="1">
          <mxGeometry x="280" y="355" width="20" height="40" as="geometry" />
        </mxCell>
        <mxCell id="Cz4GhBqtjuzWgZA0urQM-102" value="&amp;lt;&amp;lt;service&amp;gt;&amp;gt;&lt;br style=&quot;font-size: 14px;&quot;&gt;authentication" style="shape=umlActor;verticalLabelPosition=bottom;verticalAlign=top;html=1;outlineConnect=0;fontSize=14;" parent="1" vertex="1">
          <mxGeometry x="835" y="160" width="20" height="40" as="geometry" />
        </mxCell>
        <mxCell id="Cz4GhBqtjuzWgZA0urQM-175" value="&amp;lt;&amp;lt;service&amp;gt;&amp;gt;&lt;br style=&quot;font-size: 14px;&quot;&gt;navanurak api" style="shape=umlActor;verticalLabelPosition=bottom;verticalAlign=top;html=1;outlineConnect=0;fontSize=14;" parent="1" vertex="1">
          <mxGeometry x="835" y="460" width="20" height="40" as="geometry" />
        </mxCell>
        <mxCell id="h0rfx8RPR8Y8oXuff6AA-8" value="" style="endArrow=none;html=1;fontFamily=Georgia;fontSize=1;fontColor=#CC0000;strokeWidth=1;exitX=0;exitY=0.5;exitDx=0;exitDy=0;entryX=0.5;entryY=0.5;entryDx=0;entryDy=0;entryPerimeter=0;" edge="1" parent="1" source="h0rfx8RPR8Y8oXuff6AA-6" target="Cz4GhBqtjuzWgZA0urQM-44">
          <mxGeometry width="50" height="50" relative="1" as="geometry">
            <mxPoint x="417.5" y="130" as="sourcePoint" />
            <mxPoint x="230" y="120" as="targetPoint" />
          </mxGeometry>
        </mxCell>
        <mxCell id="h0rfx8RPR8Y8oXuff6AA-12" value="" style="endArrow=none;html=1;fontFamily=Georgia;fontSize=1;fontColor=#CC0000;strokeWidth=1;exitX=0.5;exitY=0.5;exitDx=0;exitDy=0;entryX=1;entryY=0.5;entryDx=0;entryDy=0;exitPerimeter=0;" edge="1" parent="1" source="Cz4GhBqtjuzWgZA0urQM-102" target="h0rfx8RPR8Y8oXuff6AA-9">
          <mxGeometry width="50" height="50" relative="1" as="geometry">
            <mxPoint x="535" y="110" as="sourcePoint" />
            <mxPoint x="300" y="110" as="targetPoint" />
          </mxGeometry>
        </mxCell>
        <mxCell id="h0rfx8RPR8Y8oXuff6AA-16" value="" style="endArrow=none;html=1;fontFamily=Georgia;fontSize=1;fontColor=#CC0000;strokeWidth=1;exitX=0.057;exitY=0.283;exitDx=0;exitDy=0;entryX=0.5;entryY=0.5;entryDx=0;entryDy=0;entryPerimeter=0;exitPerimeter=0;" edge="1" parent="1" source="h0rfx8RPR8Y8oXuff6AA-14" target="Cz4GhBqtjuzWgZA0urQM-44">
          <mxGeometry width="50" height="50" relative="1" as="geometry">
            <mxPoint x="535" y="110" as="sourcePoint" />
            <mxPoint x="300" y="110" as="targetPoint" />
          </mxGeometry>
        </mxCell>
        <mxCell id="h0rfx8RPR8Y8oXuff6AA-21" value="" style="endArrow=none;html=1;fontFamily=Georgia;fontSize=1;fontColor=#CC0000;strokeWidth=1;exitX=0;exitY=1;exitDx=0;exitDy=0;entryX=0.5;entryY=0.5;entryDx=0;entryDy=0;entryPerimeter=0;" edge="1" parent="1" source="h0rfx8RPR8Y8oXuff6AA-14" target="Cz4GhBqtjuzWgZA0urQM-50">
          <mxGeometry width="50" height="50" relative="1" as="geometry">
            <mxPoint x="547.3125" y="248.1362499999999" as="sourcePoint" />
            <mxPoint x="300" y="110" as="targetPoint" />
          </mxGeometry>
        </mxCell>
        <mxCell id="h0rfx8RPR8Y8oXuff6AA-25" value="" style="endArrow=none;html=1;fontFamily=Georgia;fontSize=1;fontColor=#CC0000;strokeWidth=1;exitX=0.5;exitY=0.5;exitDx=0;exitDy=0;exitPerimeter=0;entryX=0.957;entryY=0.748;entryDx=0;entryDy=0;entryPerimeter=0;" edge="1" parent="1" source="Cz4GhBqtjuzWgZA0urQM-47" target="h0rfx8RPR8Y8oXuff6AA-23">
          <mxGeometry width="50" height="50" relative="1" as="geometry">
            <mxPoint x="855" y="190" as="sourcePoint" />
            <mxPoint x="745" y="249" as="targetPoint" />
          </mxGeometry>
        </mxCell>
        <mxCell id="h0rfx8RPR8Y8oXuff6AA-27" value="" style="endArrow=none;html=1;fontFamily=Georgia;fontSize=1;fontColor=#CC0000;strokeWidth=1;entryX=0.967;entryY=0.647;entryDx=0;entryDy=0;exitX=0.5;exitY=0.5;exitDx=0;exitDy=0;exitPerimeter=0;entryPerimeter=0;" edge="1" parent="1" source="Cz4GhBqtjuzWgZA0urQM-47" target="h0rfx8RPR8Y8oXuff6AA-14">
          <mxGeometry width="50" height="50" relative="1" as="geometry">
            <mxPoint x="855" y="290" as="sourcePoint" />
            <mxPoint x="730" y="254.37999999999988" as="targetPoint" />
          </mxGeometry>
        </mxCell>
        <mxCell id="h0rfx8RPR8Y8oXuff6AA-36" value="" style="endArrow=none;html=1;fontFamily=Georgia;fontSize=1;fontColor=#CC0000;strokeWidth=1;entryX=0.5;entryY=0.5;entryDx=0;entryDy=0;entryPerimeter=0;exitX=1;exitY=0.5;exitDx=0;exitDy=0;" edge="1" parent="1" source="h0rfx8RPR8Y8oXuff6AA-35" target="Cz4GhBqtjuzWgZA0urQM-175">
          <mxGeometry width="50" height="50" relative="1" as="geometry">
            <mxPoint x="760" y="510" as="sourcePoint" />
            <mxPoint x="290" y="330" as="targetPoint" />
          </mxGeometry>
        </mxCell>
        <mxCell id="h0rfx8RPR8Y8oXuff6AA-38" value="" style="endArrow=none;html=1;fontFamily=Georgia;fontSize=1;fontColor=#CC0000;strokeWidth=1;entryX=1;entryY=0.5;entryDx=0;entryDy=0;exitX=0.5;exitY=0.5;exitDx=0;exitDy=0;exitPerimeter=0;" edge="1" parent="1" source="Cz4GhBqtjuzWgZA0urQM-41" target="h0rfx8RPR8Y8oXuff6AA-31">
          <mxGeometry width="50" height="50" relative="1" as="geometry">
            <mxPoint x="855" y="300" as="sourcePoint" />
            <mxPoint x="600" y="310" as="targetPoint" />
          </mxGeometry>
        </mxCell>
        <mxCell id="h0rfx8RPR8Y8oXuff6AA-46" value="" style="endArrow=none;html=1;fontFamily=Georgia;fontSize=1;fontColor=#CC0000;strokeWidth=1;exitX=0;exitY=0.5;exitDx=0;exitDy=0;entryX=0.5;entryY=0.5;entryDx=0;entryDy=0;entryPerimeter=0;" edge="1" parent="1" source="h0rfx8RPR8Y8oXuff6AA-4" target="Cz4GhBqtjuzWgZA0urQM-44">
          <mxGeometry width="50" height="50" relative="1" as="geometry">
            <mxPoint x="547.3125000000002" y="248.13625000000002" as="sourcePoint" />
            <mxPoint x="300" y="110" as="targetPoint" />
          </mxGeometry>
        </mxCell>
        <mxCell id="h0rfx8RPR8Y8oXuff6AA-47" value="" style="endArrow=none;html=1;fontFamily=Georgia;fontSize=1;fontColor=#CC0000;strokeWidth=1;entryX=1;entryY=1;entryDx=0;entryDy=0;exitX=0.5;exitY=0.5;exitDx=0;exitDy=0;exitPerimeter=0;" edge="1" parent="1" source="Cz4GhBqtjuzWgZA0urQM-41" target="h0rfx8RPR8Y8oXuff6AA-14">
          <mxGeometry width="50" height="50" relative="1" as="geometry">
            <mxPoint x="850" y="380" as="sourcePoint" />
            <mxPoint x="607.5" y="385" as="targetPoint" />
          </mxGeometry>
        </mxCell>
        <mxCell id="h0rfx8RPR8Y8oXuff6AA-81" value="" style="endArrow=none;html=1;fontFamily=Georgia;fontSize=1;fontColor=#CC0000;strokeWidth=1;exitX=0.5;exitY=0;exitDx=0;exitDy=0;entryX=0.5;entryY=0.5;entryDx=0;entryDy=0;entryPerimeter=0;" edge="1" parent="1" source="h0rfx8RPR8Y8oXuff6AA-43" target="Cz4GhBqtjuzWgZA0urQM-50">
          <mxGeometry width="50" height="50" relative="1" as="geometry">
            <mxPoint x="552.7005573834597" y="264.4457160203732" as="sourcePoint" />
            <mxPoint x="300" y="385" as="targetPoint" />
          </mxGeometry>
        </mxCell>
      </root>
    </mxGraphModel>
  </diagram>
</mxfile>
